<svg id="Layer_1" data-name="Layer 1" xmlns="http://www.w3.org/2000/svg" viewBox="0 0 844.07 283.7"><defs><style>.cls-1{fill:#3d79a8;}.cls-2{fill:#1a1a1a;}</style></defs><title>AATE2</title><rect class="cls-1" x="89.07" y="237.4" width="57" height="20.3"/><polygon class="cls-1" points="477.37 208.3 388.27 208.3 388.27 248.9 498.67 248.9 477.37 208.3"/><polygon class="cls-2" points="462.67 180.2 409.37 180.2 368.37 102.1 273.17 283.7 219.97 283.7 368.37 0.6 462.67 180.2"/><polygon class="cls-1" points="516.77 283.3 463.67 283.7 446.87 251.6 445.27 248.6 435.77 230.6 489.07 230.6 498.57 248.6 503.67 258.4 516.77 283.3"/><polygon class="cls-2" points="844.07 137.2 757.87 137.2 728.77 108.1 844.07 108.1 844.07 137.2"/><polygon class="cls-1" points="757.87 137.2 728.77 108.1 728.77 177.4 757.87 177.4 757.87 137.2"/><polygon class="cls-1" points="757.37 256.9 728.27 284 728.27 214.7 757.37 214.7 757.37 256.9"/><rect class="cls-2" x="728.77" y="182" width="115.3" height="29.1"/><polygon class="cls-2" points="844.07 284 728.27 284 757.37 254.9 844.07 254.9 844.07 284"/><polygon class="cls-2" points="175.37 272.7 175.37 272.7 175.07 272.1 164.67 252.3 164.67 252.3 148.47 221.3 148.47 221.3 141.37 207.8 141.27 207.7 141.27 207.7 90.57 111.1 -0.63 284.9 32.17 284.9 90.57 173.4 109.37 209.2 109.37 209.2 131.97 252.3 131.97 252.3 149.07 284.9 181.67 284.7 175.37 272.7"/><polygon class="cls-2" points="643.17 0 593.17 0 508.07 0 508.07 49.7 593.17 49.7 593.17 272.2 593.17 279.9 593.17 284 642.87 284 642.87 279.9 642.97 279.9 642.97 49.7 643.17 49.7 728.27 49.7 728.27 0 643.17 0"/></svg>