<?xml version="1.0" encoding="utf-8"?>
<!-- Generator: Adobe Illustrator 21.0.0, SVG Export Plug-In . SVG Version: 6.00 Build 0)  -->
<svg version="1.1" id="Layer_1" xmlns="http://www.w3.org/2000/svg" xmlns:xlink="http://www.w3.org/1999/xlink" x="0px" y="0px"
	 viewBox="0 0 1580 800" style="enable-background:new 0 0 1580 800;" xml:space="preserve">
<style type="text/css">
	.st0{fill:#3D79A8;}
	.st1{fill:#1A1A1A;}
	.st2{font-family:'NexaBold';}
	.st3{font-size:61.7418px;}
	.st4{font-family:'NexaLight';}
	.st5{font-size:37.6962px;}
</style>
<g>
	<rect x="457.3" y="438" class="st0" width="57" height="20.3"/>
	<polygon class="st0" points="845.6,408.9 756.5,408.9 756.5,449.5 866.9,449.5 	"/>
	<text transform="matrix(1 0 0 1 184.4343 547.5563)" class="st1 st2 st3">Association for Athletic Training Education</text>
	<g>
		<text transform="matrix(1 0 0 1 483.034 587.2785)" class="st0 st4 st5">Community | Advocacy | Innovation</text>
	</g>
	<polygon class="st1" points="830.9,380.8 777.6,380.8 736.6,302.7 641.4,484.3 588.2,484.3 736.6,201.2 	"/>
	<polygon class="st0" points="885,483.9 831.9,484.3 815.1,452.2 813.5,449.2 804,431.2 857.3,431.2 866.8,449.2 871.9,459 	"/>
	<polygon class="st1" points="1212.3,337.8 1126.1,337.8 1097,308.7 1212.3,308.7 	"/>
	<polygon class="st0" points="1126.1,337.8 1097,308.7 1097,378 1126.1,378 	"/>
	<polygon class="st0" points="1125.6,457.5 1096.5,484.6 1096.5,415.3 1125.6,415.3 	"/>
	<rect x="1097" y="382.6" class="st1" width="115.3" height="29.1"/>
	<polygon class="st1" points="1212.3,484.6 1096.5,484.6 1125.6,455.5 1212.3,455.5 	"/>
	<polygon class="st1" points="543.6,473.3 543.6,473.3 543.3,472.7 532.9,452.9 532.9,452.9 516.7,421.9 516.7,421.9 509.6,408.4 
		509.5,408.3 509.5,408.3 458.8,311.7 367.6,485.5 400.4,485.5 458.8,374 477.6,409.8 477.6,409.8 500.2,452.9 500.2,452.9 
		517.3,485.5 549.9,485.3 	"/>
	<polygon class="st1" points="1011.4,200.6 961.4,200.6 876.3,200.6 876.3,250.3 961.4,250.3 961.4,472.8 961.4,480.5 961.4,484.6 
		1011.1,484.6 1011.1,480.5 1011.2,480.5 1011.2,250.3 1011.4,250.3 1096.5,250.3 1096.5,200.6 	"/>
</g>
</svg>
