<svg xmlns="http://www.w3.org/2000/svg" viewBox="0 0 1149.82 398.92"><defs><style>.cls-1,.cls-2,.cls-7,.cls-9{fill:#fff;}.cls-1{opacity:0.75;}.cls-2,.cls-7{isolation:isolate;font-family:ArialMT, Arial;}.cls-2{font-size:61.74px;}.cls-3{letter-spacing:-0.06em;}.cls-4{letter-spacing:-0.02em;}.cls-5{letter-spacing:-0.04em;}.cls-6{letter-spacing:0em;}.cls-7{font-size:37.7px;}.cls-8{letter-spacing:-0.06em;}</style></defs><title>opacityAsset 3</title><g id="Layer_2" data-name="Layer 2"><g id="Layer_1-2" data-name="Layer 1"><rect class="cls-1" x="272.96" y="237.4" width="57" height="20.3"/><polygon class="cls-1" points="661.26 208.3 572.16 208.3 572.16 248.9 682.56 248.9 661.26 208.3"/><text class="cls-2" transform="translate(0.09 346.96)">Association for<tspan class="cls-3" x="404.94" y="0"> </tspan><tspan x="418.69" y="0">Athletic</tspan><tspan class="cls-4" x="621.16" y="0"> </tspan><tspan class="cls-5" x="637.19" y="0">T</tspan><tspan class="cls-6" x="672.62" y="0">raining Education</tspan></text><text class="cls-7" transform="translate(298.69 386.68)">Community |<tspan class="cls-8" x="210.88" y="0"> </tspan><tspan x="219.27" y="0">Advocacy | Innovation</tspan></text><polygon class="cls-9" points="646.56 180.2 593.26 180.2 552.26 102.1 457.06 283.7 403.86 283.7 552.26 0.6 646.56 180.2"/><polygon class="cls-1" points="700.66 283.3 647.56 283.7 630.76 251.6 629.16 248.6 619.66 230.6 672.96 230.6 682.46 248.6 687.56 258.4 700.66 283.3"/><polygon class="cls-9" points="1027.96 137.2 941.76 137.2 912.66 108.1 1027.96 108.1 1027.96 137.2"/><polygon class="cls-1" points="941.76 137.2 912.66 108.1 912.66 177.4 941.76 177.4 941.76 137.2"/><polygon class="cls-1" points="941.26 256.9 912.16 284 912.16 214.7 941.26 214.7 941.26 256.9"/><rect class="cls-9" x="912.66" y="182" width="115.3" height="29.1"/><polygon class="cls-9" points="1027.96 284 912.16 284 941.26 254.9 1027.96 254.9 1027.96 284"/><polygon class="cls-9" points="359.26 272.7 359.26 272.7 358.96 272.1 348.56 252.3 348.56 252.3 332.36 221.3 332.36 221.3 325.26 207.8 325.16 207.7 325.16 207.7 274.46 111.1 183.26 284.9 216.06 284.9 274.46 173.4 293.26 209.2 293.26 209.2 315.86 252.3 315.86 252.3 332.96 284.9 365.56 284.7 359.26 272.7"/><polygon class="cls-9" points="827.06 0 777.06 0 691.96 0 691.96 49.7 777.06 49.7 777.06 272.2 777.06 279.9 777.06 284 826.76 284 826.76 279.9 826.86 279.9 826.86 49.7 827.06 49.7 912.16 49.7 912.16 0 827.06 0"/></g></g></svg>